<?xml version="1.0" encoding="UTF-8" standalone="no"?>
<svg
   width="262.19901"
   height="67"
   viewBox="70.900708 14 262.19901 67"
   preserveAspectRatio="xMidYMid"
   version="1.1"
   id="svg144"
   sodipodi:docname="METERN.svg"
   inkscape:version="1.2.2 (732a01da63, 2022-12-09)"
   xmlns:inkscape="http://www.inkscape.org/namespaces/inkscape"
   xmlns:sodipodi="http://sodipodi.sourceforge.net/DTD/sodipodi-0.dtd"
   xmlns="http://www.w3.org/2000/svg"
   xmlns:svg="http://www.w3.org/2000/svg">
  <sodipodi:namedview
     id="namedview146"
     pagecolor="#ffffff"
     bordercolor="#000000"
     borderopacity="0.25"
     inkscape:showpageshadow="2"
     inkscape:pageopacity="0.0"
     inkscape:pagecheckerboard="0"
     inkscape:deskcolor="#d1d1d1"
     showgrid="false"
     inkscape:zoom="3.3668475"
     inkscape:cx="179.09929"
     inkscape:cy="61.184832"
     inkscape:window-width="1920"
     inkscape:window-height="1017"
     inkscape:window-x="-8"
     inkscape:window-y="-8"
     inkscape:window-maximized="1"
     inkscape:current-layer="svg144" />
  <defs
     id="defs134">
    <filter
       id="editing-scratch"
       x="-0.097075598"
       y="-0.46739372"
       width="1.1172997"
       height="1.6677053">
      <!-- COLOR -->
      <feFlood
         flood-color="#ddd"
         flood-opacity="0.75"
         result="COLOR-blu"
         id="feFlood75" />
      <feFlood
         flood-color="#666"
         flood-opacity="0.4"
         result="COLOR-red"
         id="feFlood77" />
      <!-- COLOR END -->
      <!-- Texture -->
      <feTurbulence
         baseFrequency=".05"
         type="fractalNoise"
         numOctaves="3"
         seed="0"
         result="Texture_10"
         id="feTurbulence79" />
      <feColorMatrix
         type="matrix"
         values="0 0 0 0 0,     0 0 0 0 0,     0 0 0 0 0,     0 0 0 -2.1 1.1"
         in="Texture_10"
         result="Texture_20"
         id="feColorMatrix81" />
      <feColorMatrix
         result="Texture_30"
         type="matrix"
         values="0 0 0 0 0,     0 0 0 0 0,     0 0 0 0 0,     0 0 0 -1.7 1.8"
         in="Texture_10"
         id="feColorMatrix83" />
      <!-- Texture -->
      <!-- FILL -->
      <feOffset
         dx="-3"
         dy="4"
         in="SourceAlpha"
         result="FILL_10"
         id="feOffset85" />
      <feDisplacementMap
         scale="17"
         in="FILL_10"
         in2="Texture_10"
         result="FILL_20"
         id="feDisplacementMap87"
         xChannelSelector="A"
         yChannelSelector="A" />
      <feComposite
         operator="in"
         in="Texture_30"
         in2="FILL_20"
         result="FILL_40"
         id="feComposite89" />
      <feComposite
         operator="in"
         in="COLOR-blu"
         in2="FILL_40"
         result="FILL_50"
         id="feComposite91" />
      <!-- FILL END-->
      <!-- OUTLINE -->
      <feMorphology
         operator="dilate"
         radius="3"
         in="SourceGraphic"
         result="OUTLINE_10"
         id="feMorphology93" />
      <feComposite
         operator="out"
         in="OUTLINE_10"
         in2="SourceGraphic"
         result="OUTLINE_20"
         id="feComposite95" />
      <feDisplacementMap
         scale="7"
         in="OUTLINE_20"
         in2="Texture_10"
         result="OUTLINE_30"
         id="feDisplacementMap97"
         xChannelSelector="A"
         yChannelSelector="A" />
      <feComposite
         operator="arithmetic"
         k2="-1"
         k3="1"
         in="Texture_20"
         in2="OUTLINE_30"
         result="OUTLINE_40"
         id="feComposite99"
         k1="0"
         k4="0" />
      <!-- OUTLINE END-->
      <!-- BEVEL OUTLINE -->
      <feConvolveMatrix
         order="8,8"
         divisor="1"
         kernelMatrix="1 0 0 0 0 0 0 0 0 1 0 0 0 0 0 0 0 0 1 0 0 0 0 0 0 0 0 1 0 0 0 0 0 0 0 0 1 0 0 0 0 0 0 0 0 1 0 0 0 0 0 0 0 0 1 0 0 0 0 0 0 0 0 1 "
         in="SourceGraphic"
         result="BEVEL_10"
         id="feConvolveMatrix101" />
      <feMorphology
         operator="dilate"
         radius="2"
         in="BEVEL_10"
         result="BEVEL_20"
         id="feMorphology103" />
      <feComposite
         operator="out"
         in="BEVEL_20"
         in2="BEVEL_10"
         result="BEVEL_30"
         id="feComposite105" />
      <feDisplacementMap
         scale="7"
         in="BEVEL_30"
         in2="Texture_10"
         result="BEVEL_40"
         id="feDisplacementMap107"
         xChannelSelector="A"
         yChannelSelector="A" />
      <feComposite
         operator="arithmetic"
         k2="-1"
         k3="1"
         in="Texture_20"
         in2="BEVEL_40"
         result="BEVEL_50"
         id="feComposite109"
         k1="0"
         k4="0" />
      <feOffset
         dx="-7"
         dy="-7"
         in="BEVEL_50"
         result="BEVEL_60"
         id="feOffset111" />
      <feComposite
         operator="out"
         in="BEVEL_60"
         in2="OUTLINE_10"
         result="BEVEL_70"
         id="feComposite113" />
      <!-- BEVEL OUTLINE END -->
      <!-- BEVEL FILL -->
      <feOffset
         dx="-9"
         dy="-9"
         in="BEVEL_10"
         result="BEVEL-FILL_10"
         id="feOffset115" />
      <feComposite
         operator="out"
         in="BEVEL-FILL_10"
         in2="OUTLINE_10"
         result="BEVEL-FILL_20"
         id="feComposite117" />
      <feDisplacementMap
         scale="17"
         in="BEVEL-FILL_20"
         in2="Texture_10"
         result="BEVEL-FILL_30"
         id="feDisplacementMap119"
         xChannelSelector="A"
         yChannelSelector="A" />
      <feComposite
         operator="in"
         in="COLOR-red"
         in2="BEVEL-FILL_30"
         result="BEVEL-FILL_50"
         id="feComposite121" />
      <!-- -->
      <!-- BEVEL FILL END-->
      <feMerge
         result="merge2"
         id="feMerge131">
        <feMergeNode
           in="BEVEL-FILL_50"
           id="feMergeNode123" />
        <feMergeNode
           in="BEVEL_70"
           id="feMergeNode125" />
        <feMergeNode
           in="FILL_50"
           id="feMergeNode127" />
        <feMergeNode
           in="OUTLINE_40"
           id="feMergeNode129" />
      </feMerge>
    </filter>
  </defs>
  <g
     filter="url(#editing-scratch)"
     id="g140"
     transform="translate(-1.7820825,-53.165461)">
    <g
       transform="translate(85.334387,126.465)"
       id="g138">
      <path
         d="m 6.53,0 h -7.36 l 11.58,-42.24 h 13.38 l 2.94,24.13 11.91,-24.13 h 11.2 l 1.15,31.62 v 0 q 0.25,6.27 3.33,8.19 v 0 0 q -0.71,1.28 -2.76,2.49 v 0 0 q -2.04,1.22 -4.76,1.22 v 0 0 q -2.72,0 -4.32,-0.77 v 0 0 q -1.6,-0.77 -2.5,-2.05 v 0 0 q -1.6,-2.3 -1.6,-6.72 v 0 -19.77 L 26.11,0 H 18.18 L 13.7,-28.74 Z m 78.21,-9.86 v 0 0 q 1.21,1.54 1.21,4.04 v 0 0 q 0,3.45 -2.56,5.28 v 0 0 Q 80.83,1.28 76.8,1.28 v 0 0 q -2.3,0 -5.82,-0.51 v 0 0 q -6.92,-1.09 -9.03,-1.09 v 0 0 q -2.11,0 -2.94,0.1 v 0 0 Q 58.18,-0.13 56.83,0 v 0 l 7.87,-42.24 h 27.59 v 0 q 0,3.9 -1.89,5.95 v 0 0 q -1.89,2.05 -5.6,2.05 v 0 0 q -3.71,0 -7.49,-1.73 v 0 l -1.98,11.2 h 11.39 v 0 q 0,3.39 -1.66,5.28 v 0 0 q -1.67,1.89 -4.45,1.89 v 0 0 q -2.79,0 -4.51,-0.64 v 0 0 q -1.73,-0.64 -1.92,-0.83 v 0 l -2.31,12.09 v 0 q 1.54,0.2 4.42,0.2 v 0 0 q 4.93,0 8.45,-3.08 z m 12.22,-21.31 v 0 0 q -2.18,-1.66 -2.18,-5.21 v 0 0 q 0,-3.56 2.34,-5.41 v 0 0 q 2.34,-1.86 6.37,-1.86 v 0 0 q 2.56,0 8.64,0.9 v 0 l 4.35,0.64 v 0 q 2.18,0.25 4.45,0.25 v 0 0 q 2.27,0 3.81,-0.96 v 0 0 q 2.3,2.05 2.3,5 v 0 0 q 0,2.94 -2.62,5.05 v 0 0 q -2.69,2.24 -6.15,2.24 v 0 0 q -1.66,0 -4.35,-0.45 v 0 0 q -3.14,9.86 -3.14,16.71 v 0 0 q 0,6.85 3.46,10.43 v 0 0 q -1.6,2.88 -3.97,4 v 0 0 q -2.37,1.12 -5.92,1.12 v 0 0 q -3.55,0 -5.76,-1.95 v 0 0 q -2.21,-1.95 -2.21,-5.99 v 0 0 q 0,-4.67 2.56,-12.35 v 0 0 q 2.56,-7.61 6.4,-13.44 v 0 0 q -1.85,-0.19 -3.77,-0.19 v 0 0 q -3.97,0 -4.61,1.47 z m 55.36,21.31 v 0 0 q 1.22,1.54 1.22,4.04 v 0 0 q 0,3.45 -2.56,5.28 v 0 0 q -2.56,1.82 -6.6,1.82 v 0 0 q -2.3,0 -5.82,-0.51 v 0 0 q -6.91,-1.09 -9.02,-1.09 v 0 0 q -2.12,0 -2.95,0.1 v 0 0 q -0.83,0.09 -2.17,0.22 v 0 l 7.87,-42.24 h 27.58 v 0 q 0,3.9 -1.89,5.95 v 0 0 q -1.88,2.05 -5.6,2.05 v 0 0 q -3.71,0 -7.48,-1.73 v 0 l -1.99,11.2 h 11.39 v 0 q 0,3.39 -1.66,5.28 v 0 0 q -1.66,1.89 -4.45,1.89 v 0 0 q -2.78,0 -4.51,-0.64 v 0 0 q -1.73,-0.64 -1.92,-0.83 v 0 l -2.3,12.09 v 0 q 1.53,0.2 4.41,0.2 v 0 0 q 4.93,0 8.45,-3.08 z M 172.54,0 h -13.69 l 7.81,-42.05 v 0 q 6.33,-0.7 15.58,-0.7 v 0 0 q 9.25,0 13.54,2.69 v 0 0 q 4.28,2.68 4.28,8.09 v 0 0 q 0,5.41 -2.78,8.8 v 0 0 q -2.78,3.39 -7.58,4.48 v 0 0 q 1.08,5.31 3.58,9.6 v 0 0 q 2.3,4.03 4.99,5.31 v 0 0 q -0.96,2.69 -2.91,3.88 v 0 0 q -1.95,1.18 -4.74,1.18 v 0 0 q -2.78,0 -4.96,-1.63 v 0 0 q -2.17,-1.63 -3.9,-4.64 v 0 0 q -3.65,-6.53 -4.03,-16.83 v 0 h 0.45 v 0 q 4.73,-0.13 7.1,-2.6 v 0 0 q 2.37,-2.46 2.37,-7.64 v 0 0 q 0,-6.47 -5.44,-6.72 v 0 h -1.41 v 0 q -0.58,0 -0.9,0.06 v 0 z m 37.06,0 h -7.04 l 7.68,-42.24 H 224 l 9.98,29.06 5.32,-29.06 7.1,0.06 L 238.59,0 h -14.65 l -9.22,-27.97 z"
         fill="#000000"
         id="path136" />
    </g>
  </g>
  <style
     id="style142">text {
  font-size: 64px;
  font-family: Arial Black;
  dominant-baseline: central;
  text-anchor: middle;
}</style>
</svg>
