<?xml version="1.0" encoding="UTF-8" standalone="no"?>
<!-- Created with Inkscape (http://www.inkscape.org/) -->

<svg
   width="16"
   height="16"
   viewBox="0 0 4.2333333 4.2333333"
   version="1.1"
   id="svg5"
   xml:space="preserve"
   inkscape:version="1.2.2 (732a01da63, 2022-12-09)"
   sodipodi:docname="favicon.svg"
   xmlns:inkscape="http://www.inkscape.org/namespaces/inkscape"
   xmlns:sodipodi="http://sodipodi.sourceforge.net/DTD/sodipodi-0.dtd"
   xmlns="http://www.w3.org/2000/svg"
   xmlns:svg="http://www.w3.org/2000/svg"><sodipodi:namedview
     id="namedview7"
     pagecolor="#ffffff"
     bordercolor="#000000"
     borderopacity="0.25"
     inkscape:showpageshadow="2"
     inkscape:pageopacity="0.0"
     inkscape:pagecheckerboard="0"
     inkscape:deskcolor="#d1d1d1"
     inkscape:document-units="mm"
     showgrid="false"
     inkscape:zoom="33.743993"
     inkscape:cx="13.039358"
     inkscape:cy="6.3418695"
     inkscape:window-width="1920"
     inkscape:window-height="1017"
     inkscape:window-x="-8"
     inkscape:window-y="-8"
     inkscape:window-maximized="1"
     inkscape:current-layer="svg5"
     showguides="true" /><defs
     id="defs2" /><g
     inkscape:label="globe"
     inkscape:groupmode="layer"
     id="layer1"
     style="display:none"><g
       id="g641"
       transform="translate(-31.580645,-21.290323)"><g
         style="fill:#000000"
         id="g44"
         transform="matrix(0.1046198,-0.06040226,0.06040226,0.1046198,23.95337,35.265495)"><g
           id="g27">
	<g
   id="g25">
		
		<g
   id="g23">
			<path
   style="fill:#f9f9f9;stroke-width:0.264583"
   d="m 130.31452,100.95161 -2.75001,-4.612901 -8.95967,-5.677419 -9.31452,-0.887097 -5.5,1.685483 -5.677418,3.370969 -3.459676,4.701611 -2.129033,5.322584 -0.887098,5.85484 0.798388,5.23387 3.104838,6.74193 3.903226,3.99194 2.661293,1.41935 z"
   id="path563"
   transform="matrix(7.1688157,4.138917,-4.138917,7.1688157,-168.97959,-1079.0653)" /><polygon
   points="260.398,82.045 256.447,82.882 255.913,88.517 260.677,88.517 266.998,87.913 270.251,84.021 266.788,82.678 264.883,80.488 262.024,75.858 260.677,69.329 255.286,70.409 253.799,72.721 253.799,75.312 256.378,77.084 260.072,79.408 "
   id="polygon11" />
			<polygon
   points="248.768,86.344 255.495,81.569 255.773,78.037 252.637,76.683 248.233,77.706 244.945,82.94 244.945,86.344 "
   id="polygon13" />
			<path
   d="m 164.852,96.598 -0.976,2.498 h -4.7 v 2.428 h 1.121 c 0,0 0.07,0.511 0.168,1.191 l 2.876,-0.238 1.783,-1.121 0.465,-2.248 2.335,-0.204 0.912,-1.888 -2.138,-0.442 z"
   id="path15" />
			<polygon
   points="152.565,103.366 155.976,103.081 156.324,100.705 154.279,99.096 152.739,101.001 "
   id="polygon17" />
			<path
   id="path19"
   d="M 265.91327,22.929398 C 240.05542,8.333197 210.20852,6.5236449e-4 178.46049,6.5236449e-4 131.89354,6.5236449e-4 89.446731,17.958327 57.634763,47.272298 50.22177,54.104291 43.413239,61.574835 37.226245,69.556827 13.918269,99.717797 8.1238563e-4,137.48831 8.1238563e-4,178.46127 c 0,45.62544 17.22108161437,87.30276 45.49430461437,118.89072 l 15.835212,-4.49042 C 32.465882,263.32236 14.643906,222.94727 14.643906,178.47394 c 0,-22.73048 4.6674,-44.39912 13.078344,-64.08606 l -0.0011,9.31021 6.792855,3.27478 -0.0014,12.95535 6.535527,11.13801 5.317663,0.80788 0.677578,-3.81721 -6.242856,-9.66008 -1.237974,-9.38842 3.675917,-0.002 1.558247,9.67212 9.053028,13.1941 -2.331842,4.26986 5.735226,8.79403 14.289965,3.53314 -0.0014,-2.30753 5.712417,0.80858 -0.532301,4.07891 4.482974,0.82486 6.947068,1.88693 9.801145,11.17111 12.505993,0.9423 1.23486,10.20657 -8.57706,5.98398 -0.39183,9.11428 -1.23622,5.589 12.38547,15.49843 0.94727,5.32335 c 0,0 4.49048,1.20569 5.04848,1.20569 0.535,0 10.06277,7.22737 10.06277,7.22737 l -10e-4,27.38838 50.35368,-14.27197 1.59615,-2.77317 7.41133,0.21871 3.20721,-0.90948 5.10531,-4.05164 2.05034,-19.6953 7.04115,-8.87615 1.23725,-5.70202 -6.38923,-2.04892 -4.22336,-6.9382 -14.4223,-0.14699 -11.44077,-4.35294 -0.53351,-8.16175 -3.81387,-6.67214 -10.33254,-0.14682 -5.99526,-9.37882 -5.297,-2.58898 -0.27325,2.86024 -9.67408,0.56922 -3.5314,-4.92843 -10.07683,-2.04412 -8.3056,9.60326 -13.06323,-2.22721 -0.953659,-14.73176 -9.526876,-1.62781 3.804637,-7.22292 -1.092582,-4.1477 -12.528358,8.37048 -7.880238,-0.96362 -2.81546,-6.15992 1.736246,-6.35242 4.3403,-8.00528 9.998168,-5.07459 19.321862,0.002 -0.0623,5.89137 6.94479,3.23408 -0.55741,-10.06242 5.00729,-5.03686 10.10171,-6.63989 0.70307,-4.65702 10.07002,-10.48626 10.70558,-5.94054 -0.9389,-0.76928 7.2554,-6.826071 2.65247,0.701574 1.2157,1.521831 2.75941,-3.059814 0.68101,-0.298341 -3.02137,-0.430495 -3.08575,-0.986306 0.002,-2.962793 1.63217,-1.329813 3.57987,0.0021 1.65645,0.7242 1.4172,2.858217 1.73516,-0.267649 0.001,-0.241412 0.50016,0.160342 5.01961,-0.771939 0.71505,-2.461925 2.85027,0.726861 0.003,2.664093 -2.66952,1.817579 0.0191,0.0011 0.37799,2.929995 9.11209,2.791138 c 0,0 9e-4,0.03759 0.0239,0.11259 l 2.08071,-0.181746 0.14435,-3.937377 -7.20827,-3.282474 -0.398,-1.894377 5.97498,-2.033136 0.27061,-5.721711 -6.24345,-3.807173 -0.41061,-9.666478 -8.58035,4.218698 -3.14691,8.44e-4 0.83818,-7.354984 -11.6867,-2.746359 -4.81489,3.651287 -0.002,11.117387 -8.67465,2.756509 -3.48585,7.243976 -3.75605,0.602471 9.7e-4,-9.275724 -8.16335,-1.132012 -4.09646,-2.666401 -1.63823,-6.008768 14.6122,-8.540535 7.13919,-2.175985 0.71985,4.801837 3.9915,-0.214625 0.30575,-2.41175 4.16777,-0.596924 0.068,-0.844923 -1.78214,-0.737492 -0.40891,-2.542804 5.11998,-0.432447 3.08852,-3.210627 0.18306,-0.240072 0.0355,0.01555 0.94031,-0.978461 10.75413,-1.353397 4.7446,4.033428 -12.46653,6.637851 15.86963,3.748693 2.04359,-5.31057 6.95124,-0.0025 2.43741,-4.623827 -4.90354,-1.225737 0.003,-5.856611 -15.36045,-6.803671 -10.61828,1.229314 -6.00212,3.123903 0.40642,7.629003 -6.25562,-0.954259 -0.96601,-4.21292 6.00927,-5.446252 -10.89746,-0.537194 -3.12727,0.950684 -1.35931,3.680468 4.08513,0.684077 -0.81248,4.085089 -6.93711,0.405785 -1.08923,2.725022 -10.07814,0.276662 c 0,0 -0.2736,-5.711192 -0.7036,-5.711192 -0.389,0 7.90268,-0.144682 7.90268,-0.144682 l 5.99515,-5.849561 -3.27123,-1.631795 -4.33937,4.222193 -7.22003,-0.40462 -4.40307,-6.019487 -9.25663,1.69e-4 -9.660669,7.210645 8.848619,-0.0036 0.79651,2.598649 -2.30765,2.174684 9.8072,0.278188 1.48796,3.531317 -11.03175,-0.407267 -0.54552,-2.725403 -6.928089,-1.500576 -3.688091,-2.030531 -8.254659,0.06989 c 27.042969,-19.69898 60.284909,-31.357966 96.226879,-31.357966 41.40295,0 79.26247,15.474808 108.12344,40.913782 l -1.93142,3.473645 -7.56184,2.959374 -3.19577,3.464832 0.74561,4.021458 3.89421,0.544212 2.35781,5.866061 6.70385,-2.713818 1.12645,7.861954 -2.04488,-8.5e-5 -5.51818,-0.819921 -6.11374,1.024402 -5.92627,8.373872 -8.45814,1.320643 -1.22079,7.247693 3.57931,0.841532 -1.04481,4.667172 -8.41343,-1.6913 -7.70423,1.6917 -1.63739,4.29046 1.32559,9.01422 4.5303,2.11174 7.61307,-0.0452 5.12013,-0.46694 1.58231,-4.07529 8.01742,-10.42165 5.26285,1.08248 5.19417,-4.70175 0.97316,3.67865 12.78115,8.619 -1.55818,2.10851 -5.75975,-0.30738 2.22829,3.13879 3.55567,0.78837 4.15958,-1.73772 -0.0907,-5.00172 1.85692,-0.92345 -1.48659,-1.5745 -8.5303,-4.75703 -2.25235,-6.31394 7.09874,-0.0013 2.24339,2.24854 6.13354,5.25519 0.24436,6.36973 6.33229,6.73323 2.34597,-9.2308 4.39066,-2.39462 0.80576,7.55331 4.28692,4.69781 8.54042,-0.13706 c 1.66099,4.24699 3.14721,8.56271 4.42621,12.97771 l -0.92958,0.83153 -13.06095,0.002 -7.97171,-5.9213 -8.36406,0.80692 0.002,5.11328 -2.6487,0.002 -2.84656,-2.03368 -14.51167,-3.67102 -10e-4,-9.40042 -18.38004,1.42078 -5.70525,3.06315 -7.28656,0.002 -3.58887,-0.36298 -8.85675,4.92845 0.002,9.25292 -18.0976,13.06313 1.50269,5.58476 3.67378,0.002 -0.96279,5.3122 -2.58132,0.9547 -0.13185,13.88277 15.6324,17.82252 6.82069,10e-4 0.40593,-1.07953 12.2465,-0.003 3.52861,-3.26279 6.95124,-0.002 3.81122,3.81067 10.32682,1.07214 -1.35854,13.75739 11.09032,19.54687 59.81752,-16.95811 c 0.0127,-0.0716 0.0271,-0.14253 0.0397,-0.21418 1.801,-10.13699 2.78653,-20.5581 2.78653,-31.19409 -0.023,-0.593 -0.0556,-1.20416 -0.0556,-1.82016 -0.047,-5.223 -0.31478,-10.3977 -0.80378,-15.50469 -1.662,-17.00998 -5.71806,-33.30964 -11.82905,-48.58762 -0.441,-1.127 -0.85709,-2.28584 -1.33409,-3.41284 -8.12099,-19.182987 -19.5307,-36.643977 -33.47369,-51.718962 -0.906,-0.986999 -1.83676,-1.952225 -2.76676,-2.916224 -2.649,-2.735997 -5.33218,-5.417371 -8.15517,-7.973368 C 288.59691,37.49093 277.66865,29.56402 265.91508,22.929383 Z m 31.59384,43.254083 c 2.812,2.974997 5.50752,6.035049 8.08651,9.213046 l -3.20588,4.782766 -11.24689,-0.111626 -0.69898,-2.33982 7.04088,-3.571338 z m 26.79278,37.958139 c 1.359,2.637 2.6485,5.30499 3.8455,8.02899 l -1.70925,-0.0681 -3.17114,0.43635 0.003,-7.23454 0.01,5.7e-4 z m 13.50039,36.67541 c 0.232,0.93 0.44149,1.85801 0.66249,2.78801 l -1.17245,-2.17851 z M 91.943243,52.834929 l 3.23e-4,2.548944 -1.692459,2.23844 -8.051132,-2.99e-4 1.9e-4,-3.259928 0.01325,0.0027 8.09e-4,-0.30084 3.566611,-5.67e-4 0.322752,-1.226342 z m -0.126544,8.877225 c 0.296,0 0.0021,3.572454 0.0021,3.572454 l -8.082079,0.515294 -1.535244,-1.849566 5.724313,-1.624638 c 0,0 3.576877,-0.613544 3.890876,-0.613544 z m 13.658771,18.263678 -1.32474,5.211898 -4.184245,1.318449 -2.643688,-5.413681 4.271833,-2.043372 z m 16.34483,12.849852 3.36512,3.069045 -3.36124,0.825484 z m -3.16342,-1.416428 3.7e-4,1.941421 1.41613,0.0026 -0.003,3.367095 -9.77978,-5.68e-4 -3.68884,-1.028256 0.91666,-2.340584 4.70062,-1.939059 z m 10.56747,6.130768 2.49586,1.554592 -1.99867,1.656614 -1.97438,-1.653612 z m -4.64173,0.510981 -1.9e-4,3.259925 -2.46152,1.57709 -3.04549,0.57805 0.001,-5.417827 z m 7.94479,5.411815 0.003,3.16815 -5.2109,-3.8e-4 -1.41703,-2.06287 -10e-4,-2.94954 0.40644,-0.002 z m -16.73185,-5.412208 -6.94664,9.696328 -2.85143,-1.5376 0.61667,-4.0796 3.77683,-4.077724 z m 7.55838,6.517428 0.003,3.17771 -2.34875,2.34853 -5.2109,-3.9e-4 0.81445,-3.57518 2.46023,-0.21455 0.50103,-1.22714 z m -83.236735,-13.63371 0.252573,2.976128 -6.793272,8.258592 c -2.107338,3.98375 -4.081545,8.05149 -5.852118,12.21512 l -0.0022,-5.10373 5.85433,-7.11139 c 2.032998,-3.846 4.210702,-7.581723 6.540699,-11.23472 z" />
			<path
   d="m 27.734,109.268 v 5.106 c 1.771,-4.177 3.747,-8.231 5.855,-12.223 z"
   id="path21" />
		</g>
	</g>
</g></g></g></g><rect
     style="fill:#ffffff;stroke-width:0.0159643"
     id="rect410"
     width="3.4301515"
     height="3.4200172"
     x="0.4015421"
     y="0.40709448"
     ry="0.43909049" /><text
     xml:space="preserve"
     style="font-style:normal;font-variant:normal;font-weight:normal;font-stretch:normal;font-size:3.47831px;font-family:Rockwell;-inkscape-font-specification:'Rockwell, Normal';font-variant-ligatures:normal;font-variant-caps:normal;font-variant-numeric:normal;font-variant-east-asian:normal;fill:#000000;stroke-width:0.289859"
     x="0.7888056"
     y="3.0320611"
     id="text294"
     transform="scale(0.86339764,1.1582149)"
     inkscape:label="text294"><tspan
       sodipodi:role="line"
       id="tspan292"
       style="font-style:normal;font-variant:normal;font-weight:normal;font-stretch:normal;font-size:3.47831px;font-family:Rockwell;-inkscape-font-specification:'Rockwell, Normal';font-variant-ligatures:normal;font-variant-caps:normal;font-variant-numeric:normal;font-variant-east-asian:normal;fill:#000000;stroke-width:0.289859"
       x="0.7888056"
       y="3.0320611">M</tspan></text><g
     style="fill:#000000"
     id="g218"
     transform="matrix(-0.00292674,0.00326948,-0.00292674,-0.00326948,4.8166676,2.1865232)"
     inkscape:label="ruler"><g
       id="g208"
       style="fill:#000000"
       transform="translate(-7.2303208e-6)">
	<g
   id="g206">
		<path
   style="fill:#f9f9f9;stroke-width:2.62357"
   d="m 17.61922,436.32492 81.80591,85.32446 405.511,-412.5481 -84.44472,-79.167036 z"
   id="path455" /><path
   d="M 421.88253,16.713035 3.5185337,435.07704 97.154534,528.71304 515.51853,110.34904 Z M 25.671534,435.07704 l 16.443,-16.443 54.875,54.875 11.075996,-11.076 -54.874996,-54.875 10.939,-10.939 16.477,16.477 11.076,-11.077 -16.477,-16.477 10.939,-10.939 27.484996,27.485 11.077,-11.076 -27.484996,-27.485 10.938996,-10.939 16.477,16.477 11.076,-11.077 -16.477,-16.477 10.939,-10.939 54.874,54.875 11.076,-11.077 -54.875,-54.875 10.939,-10.939 16.477,16.477 11.076,-11.076 -16.476,-16.474 10.939,-10.939 27.485,27.485 11.076,-11.076 -27.485,-27.485 10.939,-10.939 16.477,16.477 11.076,-11.076 -16.477,-16.477 10.939,-10.939 54.874,54.875 11.077,-11.076 -54.874,-54.875 10.939,-10.939 16.477,16.477 11.076,-11.076 -16.477,-16.477 10.939,-10.939 27.485,27.485 11.076,-11.076 -27.479,-27.49 10.939,-10.939 16.477,16.477 11.077,-11.076 -16.477,-16.477 10.939,-10.939 54.875,54.875 11.077,-11.076 -54.875,-54.874 10.939,-10.939 16.477,16.477 11.077,-11.076 -16.477,-16.477 10.939,-10.939 27.485,27.485 11.076,-11.076 -27.489,-27.487005 10.939,-10.939 16.477,16.477005 11.077,-11.076005 -16.478,-16.477 10.939,-10.939 54.875,54.875005 11.076,-11.076 -54.875,-54.875005 16.443,-16.443 71.482,71.482005 -396.207996,396.209 z"
   id="path204" />
	</g>
</g></g></svg>
